<svg xmlns="http://www.w3.org/2000/svg" xmlns:xlink="http://www.w3.org/1999/xlink" fill="none" version="1.1" width="1546" height="512" viewBox="0 0 1546 512"><defs><mask id="master_svg0_392_1328" style="mask-type:alpha" maskUnits="objectBoundingBox"><g><rect x="0" y="0" width="1546" height="512" rx="0" fill="#FFFFFF" fill-opacity="1"/></g></mask></defs><g mask="url(#master_svg0_392_1328)"><g><ellipse cx="242" cy="156" rx="100" ry="100" fill="#000000" fill-opacity="1"/></g><g><ellipse cx="363" cy="343" rx="60" ry="60" fill="#000000" fill-opacity="1"/></g><g><ellipse cx="142" cy="416" rx="40" ry="40" fill="#000000" fill-opacity="1"/></g><g transform="matrix(0.33034422993659973,-0.9438605904579163,0.9438604712486267,0.3303442597389221,-291.52531891700346,421.10342406318523)"><line x1="151.00390625" y1="408.5" x2="426.46832275390625" y2="408.5" fill-opacity="0" stroke-opacity="1" stroke="#000000" fill="none" stroke-width="15"/></g><g transform="matrix(-0.5432449579238892,-0.8395742774009705,0.8395742774009705,-0.5432449579238892,268.6207212216759,832.2849449105124)"><path d="M360.705078125,335.5733642578125L583.436078125,335.5733642578125Q583.620078125,335.5733642578125,583.8040781249999,335.5823942578125Q583.988078125,335.5914342578125,584.171078125,335.6094842578125Q584.354078125,335.6275242578125,584.536078125,335.6545442578125Q584.718078125,335.6815542578125,584.899078125,335.7174742578125Q585.080078125,335.7533942578125,585.258078125,335.7981342578125Q585.437078125,335.8428642578125,585.613078125,335.8963142578125Q585.7890781250001,335.9497542578125,585.963078125,336.0117842578125Q586.136078125,336.0738142578125,586.306078125,336.1442642578125Q586.476078125,336.2147242578125,586.643078125,336.2934442578125Q586.809078125,336.3721642578125,586.971078125,336.4589542578125Q587.134078125,336.5457442578125,587.292078125,336.6404042578125Q587.450078125,336.7350542578125,587.603078125,336.8373442578125Q587.7560781249999,336.9396342578125,587.9040781250001,337.0493042578125Q588.052078125,337.1589842578125,588.194078125,337.2757842578125Q588.336078125,337.3925842578125,588.473078125,337.5162342578125Q588.609078125,337.6398742578125,588.739078125,337.7700642578125Q588.869078125,337.9002542578125,588.993078125,338.0366742578125Q589.117078125,338.1730942578125,589.233078125,338.3154142578125Q589.350078125,338.4577342578125,589.460078125,338.6056242578125Q589.570078125,338.7535042578125,589.672078125,338.9065842578125Q589.774078125,339.0596742578125,589.869078125,339.2175942578125Q589.963078125,339.3755142578125,590.050078125,339.5378842578125Q590.137078125,339.7002642578125,590.216078125,339.8667042578125Q590.295078125,340.0331342578125,590.365078125,340.2032342578125Q590.435078125,340.3733342578125,590.497078125,340.5466942578125Q590.559078125,340.7200442578125,590.613078125,340.8962342578125Q590.666078125,341.0724142578125,590.711078125,341.2510142578125Q590.7560781249999,341.4296142578125,590.792078125,341.6101842578125Q590.828078125,341.7907642578125,590.855078125,341.9728842578125Q590.882078125,342.1550082578125,590.9000781249999,342.3382362578125Q590.918078125,342.5214642578125,590.927078125,342.7053562578125Q590.936078125,342.8892492578125,590.936078125,343.0733642578125Q590.936078125,343.2574792578125,590.927078125,343.4413722578125Q590.918078125,343.6252642578125,590.9000781249999,343.8084922578125Q590.882078125,343.9917202578125,590.855078125,344.1738442578125Q590.828078125,344.3559642578125,590.792078125,344.5365442578125Q590.7560781249999,344.7171142578125,590.711078125,344.8957142578125Q590.666078125,345.0743142578125,590.613078125,345.2504942578125Q590.559078125,345.4266842578125,590.497078125,345.6000342578125Q590.435078125,345.7733942578125,590.365078125,345.9434942578125Q590.295078125,346.1135942578125,590.216078125,346.2800242578125Q590.137078125,346.4464642578125,590.050078125,346.6088442578125Q589.963078125,346.7712142578125,589.869078125,346.9291342578125Q589.774078125,347.0870542578125,589.672078125,347.2401442578125Q589.570078125,347.3932242578125,589.460078125,347.5411042578125Q589.350078125,347.6889942578125,589.233078125,347.8313142578125Q589.117078125,347.9736342578125,588.993078125,348.1100542578125Q588.869078125,348.2464742578125,588.739078125,348.3766642578125Q588.609078125,348.5068542578125,588.473078125,348.6304942578125Q588.336078125,348.7541442578125,588.194078125,348.8709442578125Q588.052078125,348.9877442578125,587.9040781250001,349.0974242578125Q587.7560781249999,349.2070942578125,587.603078125,349.3093842578125Q587.450078125,349.4116742578125,587.292078125,349.5063242578125Q587.134078125,349.6009842578125,586.971078125,349.6877742578125Q586.809078125,349.7745642578125,586.643078125,349.8532842578125Q586.476078125,349.9320042578125,586.306078125,350.0024642578125Q586.136078125,350.0729142578125,585.963078125,350.1349442578125Q585.7890781250001,350.1969742578125,585.613078125,350.2504142578125Q585.437078125,350.3038642578125,585.258078125,350.3485942578125Q585.080078125,350.3933342578125,584.899078125,350.4292542578125Q584.718078125,350.4651742578125,584.536078125,350.4921842578125Q584.354078125,350.5192042578125,584.171078125,350.5372442578125Q583.988078125,350.5552942578125,583.8040781249999,350.5643342578125Q583.620078125,350.5733642578125,583.436078125,350.5733642578125L360.705078125,350.5733642578125Q360.520963125,350.5733642578125,360.337070125,350.5643342578125Q360.153178125,350.5552942578125,359.969950125,350.5372442578125Q359.786722125,350.5192042578125,359.604598125,350.4921842578125Q359.422478125,350.4651742578125,359.241898125,350.4292542578125Q359.061328125,350.3933342578125,358.882728125,350.3485942578125Q358.704128125,350.3038642578125,358.527948125,350.2504142578125Q358.351758125,350.1969742578125,358.178408125,350.1349442578125Q358.005048125,350.0729142578125,357.834948125,350.0024642578125Q357.664848125,349.9320042578125,357.498418125,349.8532842578125Q357.331978125,349.7745642578125,357.169598125,349.6877742578125Q357.007228125,349.6009842578125,356.849308125,349.5063242578125Q356.691388125,349.4116742578125,356.538298125,349.3093842578125Q356.385218125,349.2070942578125,356.237338125,349.0974242578125Q356.089448125,348.9877442578125,355.947128125,348.8709442578125Q355.804808125,348.7541442578125,355.668388125,348.6304942578125Q355.531968125,348.5068542578125,355.401778125,348.3766642578125Q355.271588125,348.2464742578125,355.147948125,348.1100542578125Q355.024298125,347.9736342578125,354.907498125,347.8313142578125Q354.790698125,347.6889942578125,354.681018125,347.5411042578125Q354.571348125,347.3932242578125,354.469058125,347.2401442578125Q354.366768125,347.0870542578125,354.272118125,346.9291342578125Q354.177458125,346.7712142578125,354.090668125,346.6088442578125Q354.003878125,346.4464642578125,353.925158125,346.2800242578125Q353.846438125,346.1135942578125,353.775978125,345.9434942578125Q353.705528125,345.7733942578125,353.643498125,345.6000342578125Q353.581468125,345.4266842578125,353.528028125,345.2504942578125Q353.474578125,345.0743142578125,353.429848125,344.8957142578125Q353.385108125,344.7171142578125,353.349188125,344.5365442578125Q353.313268125,344.3559642578125,353.286258125,344.1738442578125Q353.259238125,343.9917202578125,353.241198125,343.8084922578125Q353.223148125,343.6252642578125,353.214108125,343.4413722578125Q353.205078125,343.2574792578125,353.205078125,343.0733642578125Q353.205078125,342.8892492578125,353.214108125,342.7053562578125Q353.223148125,342.5214642578125,353.241198125,342.3382362578125Q353.259238125,342.1550082578125,353.286258125,341.9728842578125Q353.313268125,341.7907642578125,353.349188125,341.6101842578125Q353.385108125,341.4296142578125,353.429848125,341.2510142578125Q353.474578125,341.0724142578125,353.528028125,340.8962342578125Q353.581468125,340.7200442578125,353.643498125,340.5466942578125Q353.705528125,340.3733342578125,353.775978125,340.2032342578125Q353.846438125,340.0331342578125,353.925158125,339.8667042578125Q354.003878125,339.7002642578125,354.090668125,339.5378842578125Q354.177458125,339.3755142578125,354.272118125,339.2175942578125Q354.366768125,339.0596742578125,354.469058125,338.9065842578125Q354.571348125,338.7535042578125,354.681018125,338.6056242578125Q354.790698125,338.4577342578125,354.907498125,338.3154142578125Q355.024298125,338.1730942578125,355.147948125,338.0366742578125Q355.271588125,337.9002542578125,355.401778125,337.7700642578125Q355.531968125,337.6398742578125,355.668388125,337.5162342578125Q355.804808125,337.3925842578125,355.947128125,337.2757842578125Q356.089448125,337.1589842578125,356.237338125,337.0493042578125Q356.385218125,336.9396342578125,356.538298125,336.8373442578125Q356.691388125,336.7350542578125,356.849308125,336.6404042578125Q357.007228125,336.5457442578125,357.169598125,336.4589542578125Q357.331978125,336.3721642578125,357.498418125,336.2934442578125Q357.664848125,336.2147242578125,357.834948125,336.1442642578125Q358.005048125,336.0738142578125,358.178408125,336.0117842578125Q358.351758125,335.9497542578125,358.527948125,335.8963142578125Q358.704128125,335.8428642578125,358.882728125,335.7981342578125Q359.061328125,335.7533942578125,359.241898125,335.7174742578125Q359.422478125,335.6815542578125,359.604598125,335.6545442578125Q359.786722125,335.6275242578125,359.969950125,335.6094842578125Q360.153178125,335.5914342578125,360.337070125,335.5823942578125Q360.520963125,335.5733642578125,360.705078125,335.5733642578125Z" fill-rule="evenodd" fill="#000000" fill-opacity="1"/></g><g><path d="M707.2,296.6L640,296.6L624.1,356L571.6,356L632.5,146L715,146L775.9,356L723.1,356L707.2,296.6ZM697.6,260.6L673.9,172.7L673.3,172.7L649.6,260.6L697.6,260.6ZM862.6,359.6Q844.3,360.5,825.55,356.75Q806.8,353,793,345.2L793,302Q805.3,311,822.55,316.85Q839.8,322.7,853,321.8Q862.3,321.2,866.5,317.75Q870.7,314.3,871.3,310.7Q872.8,301.4,866.8,296.6Q860.8,291.8,844.3,287.3Q826,282.2,815.2,275.45Q804.4,268.7,798.85,260.15Q793.3,251.6,793.3,238.4Q793.3,224.6,800.5,213.65Q807.7,202.7,823.3,196.4Q838.9,190.1,856.9,190.1Q870.4,190.1,884.2,192.65Q898,195.2,907.3,199.4L907.3,238.1Q897.7,233.3,884.65,229.55Q871.6,225.8,862,225.8Q841.6,225.8,839.8,236.6Q838.9,242.9,845.65,247.7Q852.4,252.5,865,256.4Q883,262.1,894.55,268.1Q906.1,274.1,912.7,283.7Q919.3,293.3,919.3,308.3Q919.3,330.5,903.4,344.45Q887.5,358.4,862.6,359.6ZM953.8,194L953.8,147.8L998.8,147.8L998.8,194L1030,194L1030,230.6L998.8,230.6L998.8,300.2Q998.8,308.9,1000.15,313.4Q1001.5,317.9,1005.1,319.55Q1008.7,321.2,1015.6,321.2Q1020.1,321.2,1023.25,320.9Q1026.4,320.6,1028.8,320L1028.8,356.9Q1016.2,358.4,1005.4,358.4Q984.7,358.4,974.5,354.2Q964.3,350,959.05,339.65Q953.8,329.3,953.8,310.1L953.8,230.6L930.4,230.6L930.4,194L953.8,194ZM1099,194L1099,211.4Q1106.8,203,1117.75,198.35Q1128.7,193.7,1139.5,193.7Q1147,193.7,1153.6,195.8L1153.6,232.7Q1145.2,230.6,1137.7,230.6Q1126.3,230.6,1116.1,234.35Q1105.9,238.1,1099,246.2L1099,356L1051,356L1051,194L1099,194ZM1236.4,359.9Q1213.6,359.9,1196.65,349.1Q1179.7,338.3,1170.55,319.4Q1161.4,300.5,1161.4,275.3Q1161.4,250.4,1170.55,231.05Q1179.7,211.7,1196.35,200.9Q1213,190.1,1235.2,190.1Q1245.4,190.1,1255.75,193.85Q1266.1,197.6,1275.1,204.2L1275.1,194L1323.1,194L1323.1,318.2Q1323.1,342.5,1329.1,356L1284.1,356Q1282,351.8,1280.5,345.2Q1261.9,359.9,1236.4,359.9ZM1207.3,275.3Q1207.3,289.1,1212.85,300.5Q1218.4,311.9,1227.55,318.65Q1236.7,325.4,1246.9,325.4Q1254.1,325.4,1263.1,322.25Q1272.1,319.1,1278.7,308.6L1278.7,241.4Q1272.1,230.9,1263.25,227.9Q1254.4,224.9,1246.9,224.9Q1236.7,224.9,1227.55,231.5Q1218.4,238.1,1212.85,249.65Q1207.3,261.2,1207.3,275.3ZM1407.7,358.4Q1380.7,358.4,1366.9,343.25Q1353.1,328.1,1353.1,298.7L1353.1,125.3L1401.1,125.3L1401.1,286.7Q1401.1,298.7,1402.9,305Q1404.7,311.3,1408.9,314.6Q1412.2,317.3,1416.25,318.05Q1420.3,318.8,1430.5,318.8L1430.5,358.4L1407.7,358.4Z" fill="#000000" fill-opacity="1"/></g></g></svg>